<svg xmlns="http://www.w3.org/2000/svg" width="1402.227" height="340.16" viewBox="0 0 1051.67 255.12"><defs><clipPath id="clip1"><path d="M928 66h123.672v127H928Zm0 0"/></clipPath><clipPath id="clip2"><path d="M359 206h44v49.121h-44Zm0 0"/></clipPath><clipPath id="clip3"><path d="M738 206h30v49.121h-30Zm0 0"/></clipPath></defs><g id="surface1"><path d="m292.164 187.422 8.352-.692c9.05-.933 9.05-2.09 9.05-30.398V75.578c0-28.305 0-29.465-9.05-30.394l-8.352-.7v-5.093h60.563c22.043 0 56.39 3.472 56.39 41.757 0 31.559-35.27 46.18-57.086 46.18h-3.937v-5.105c9.965 0 36.66-4.645 36.66-39.68 0-27.152-18.34-35.512-39.215-35.512-4.875 0-9.754.938-14.39 1.867v107.434c0 28.309 0 29.465 12.765 30.398l8.356.692v5.117h-60.106m182.156-3.363c31.72 0 43.66-27.25 43.66-54.492 0-35.25-17.539-61.942-46.835-61.942-27.997 0-44.403 23.32-44.403 55.606 0 38.062 19.406 60.828 47.578 60.828m-67.175-57.29c0-40.296 31.16-65.3 67.175-65.3 34.328 0 63.258 21.828 63.258 63.246 0 41.059-29.863 65.504-66.8 65.504-36.946 0-63.633-23.145-63.633-63.45m186.875-10.073c14.75 8.402 30.05 16.226 30.05 38.617 0 25.187-23.32 34.906-43.097 34.906-14.563 0-23.524-3.93-29.301-7.469-3.36-7.277-5.98-21.086-5.98-32.84l5.98-1.484c2.047 13.426 8.953 35.633 34.512 35.633 12.882 0 22.402-8.399 22.402-22.953 0-13.618-11.39-22.95-25.941-29.485l-11.942-6.523c-10.633-5.785-20.531-17.36-20.531-31.348 0-22.773 19.043-32.285 38.824-32.285 11.567 0 20.89 2.984 25.742 5.969 1.496 5.972 1.864 21.097 1.864 25.75h-4.66c-1.868-9.332-4.856-25.559-25.942-25.559-10.82 0-20.336 7.84-20.336 20.34 0 11.008 8.024 16.977 18.106 22.941m40.91 72.395 6.715-.555c7.27-.746 7.27-1.683 7.27-24.437V98.484c0-22.757 0-23.691-7.27-24.437l-6.715-.559v-4.11h45.328v4.11l-6.711.559c-7.274.746-7.274 1.68-7.274 24.437v64.942c0 22.754 0 23.691 7.274 24.437l6.71.555v4.121H624.68m82.234-4.121 6.902-.555c10.258-.746 10.258-1.683 10.258-24.437v-88.82h-9.695c-26.317 0-26.688 2.796-30.781 24.445h-4.48c0-.75-.376-5.781-.376-8.215 0-8.582 1.293-17.348 2.047-21.457h103.934c.746 4.11 2.062 12.875 2.062 21.457 0 2.434-.383 7.465-.383 8.215h-4.476c-4.11-21.649-4.48-24.446-30.785-24.446h-9.707v88.82c0 22.755 0 23.692 10.437 24.438l6.73.555v4.121h-51.687m86.395-4.121 6.71-.555c7.278-.746 7.278-1.683 7.278-24.437V98.484c0-22.757 0-23.691-7.277-24.437l-6.711-.559v-4.11h45.332v4.11l-6.715.559c-7.278.746-7.278 1.68-7.278 24.437v64.942c0 22.754 0 23.691 7.278 24.437l6.715.555v4.121h-45.332m67.164-104.125c-2.797-6.906-4.836-13.809-11.004-14.367l-5.407-.559v-4.105h46.458v4.105l-5.793.559c-2.98.367-8.391.93-8.391 4.668 0 .933 1.492 5.226 2.434 7.46l32.273 83.22c4.297-11.196 33.586-83.778 33.586-89.56 0-3.737-3.73-4.675-7.274-5.23l-8.402-1.117v-4.105h40.305v4.105l-4.856 1.117c-2.05.372-4.105 1.493-5.593 2.989-4.106 4.11-10.07 22.015-14.746 30.972l-12.676 30.598c-10.645 25.746-19.965 48.512-21.649 53.375-.941.742-3.922 2.043-6.343 2.79" style="stroke:none;fill-rule:nonzero;fill:#ff7500;fill-opacity:1"/><g clip-path="url(#clip1)"><path d="M967.52 137.11c5.601-.372 11.382-.93 16.98-.93 5.969 0 11.941.187 17.91.93l-17.164-45.153Zm-39.18 51.308 3.543-.55c7.086-1.118 8.027-3.169 12.5-13.997l38.816-94.414c1.496-3.727 2.977-7.457 4.477-11.016l5.414-1.855 41.601 108.031c2.797 7.465 4.668 11.758 9.52 12.692l7.46 1.109v4.121h-46.28v-4.121l8.41-1.488c3.36-.555 5.777-1.493 5.777-3.543 0-1.305-.75-2.61-1.117-3.914l-13.07-35.27c-6.903-1.308-13.801-1.867-20.696-1.867-6.539 0-13.07.746-19.597 1.867l-9.52 25.93c-2.234 5.976-3.726 11.023-3.726 12.508 0 3.543 2.418 4.109 4.476 4.289l11.192 1.488v4.121h-39.18" style="stroke:none;fill-rule:nonzero;fill:#ff7500;fill-opacity:1"/></g><g clip-path="url(#clip2)"><path d="M402.82 240.543c-.422 4.418-1.199 7.703-2.882 11.906-1.958.914-7.637 2.672-14.43 2.672-13.395 0-26-6.238-26-24.039 0-18.71 15.062-24.324 26.137-24.324 7.156 0 12.48 1.758 14.293 2.875.64 2.808 1.132 6.87 1.132 10.37l-1.89.419c-.707-2.797-1.621-11.352-13.61-11.352-11.48 0-18.703 7.57-18.703 20.676 0 11.98 5.742 23.059 18.5 23.059 11.633 0 13.39-7.082 15.559-12.688" style="stroke:none;fill-rule:nonzero;fill:#ff7500;fill-opacity:1"/></g><path d="M425.39 253.055c9.587 0 13.192-8.23 13.192-16.453 0-10.657-5.293-18.72-14.148-18.72-8.454 0-13.407 7.052-13.407 16.794 0 11.504 5.856 18.379 14.364 18.379m-20.282-17.301c0-12.176 9.407-19.727 20.282-19.727 10.379 0 19.109 6.586 19.109 19.106 0 12.398-9.016 19.777-20.172 19.777-11.164 0-19.219-6.98-19.219-19.156m42.543 17.074 1.414-.344c.844-.168 1.399-.394 1.743-.672.562-.566.964-4.167 1.296-9.296l.907-14.203c.215-3.836.617-9.918.617-11.442l1.52-.5c1.69 2.922 14.542 27.211 16.289 30.309 1.804-2.875 14.425-26.938 15.492-29.809l1.468-.5c0 .445.403 6.758.786 14.191l.503 9.754c.235 4.793.625 10.258 1.079 11.098.277.563 1.132.902 2.136 1.07l1.703.344v1.238h-14.437v-1.238l2.203-.344c2.422-.277 2.649-1.175 2.649-3.773 0-6.258-.965-18.086-.965-21.691h-.106c-.96 2.476-6.707 13.523-12.293 24.511-.277.559-.504 1.239-.781 1.801l-1.582.734c-1.238-2.59-8.398-16.343-12.285-23.78a38 38 0 0 1-1.531-3.266h-.098c-.18 3.21-.957 19.16-.957 20.91 0 3.316 0 4.277 2.64 4.554l2.25.344v1.238h-11.66m49.536-1.238 2.03-.172c2.192-.23 2.192-.508 2.192-7.383V225.66c0-6.867 0-7.16-2.191-7.383l-2.031-.16v-1.246h14.707c5.355 0 13.695.84 13.695 10.149 0 7.656-8.567 11.21-13.863 11.21h-.95v-1.25c2.414 0 8.907-1.117 8.907-9.617 0-6.601-4.457-8.625-9.532-8.625-1.183 0-2.37.211-3.492.453v26.082c0 6.875 0 7.153 3.098 7.383l2.027.172v1.238h-14.598m37.028-16.734c1.691-.11 3.437-.293 5.129-.293 1.804 0 3.601.063 5.41.293l-5.184-13.644Zm-11.836 15.496 1.066-.172c2.14-.336 2.43-.945 3.782-4.222l11.722-28.52c.453-1.121.903-2.25 1.348-3.324l1.644-.563 12.563 32.625c.848 2.254 1.402 3.555 2.867 3.836l2.258.34v1.238H545.66v-1.238l2.528-.45c1.019-.171 1.753-.452 1.753-1.07 0-.402-.23-.796-.343-1.19l-3.938-10.653c-2.09-.395-4.176-.55-6.258-.55-1.98 0-3.945.218-5.922.55l-2.87 7.84c-.676 1.804-1.133 3.32-1.133 3.773 0 1.07.734 1.242 1.355 1.3l3.383.45v1.238h-11.836" style="stroke:none;fill-rule:nonzero;fill:#ff7500;fill-opacity:1"/><path d="M571.02 211.797c.675-1.121 2.695-4.734 5.683-4.734 1.36 0 2.707.566 4.063 1.078 1.41.558 2.87 1.125 4.336 1.125 1.578 0 2.644-1.754 3.101-2.368l.735.672c-.625 1.352-2.258 4.684-5.36 4.684-2.707 0-6.476-2.195-8.39-2.195-1.583 0-2.82 1.738-3.383 2.476Zm-12.403 41.031 2.024-.168c2.195-.172 2.601-1.918 2.601-8.008v-27.78l1.293-.497c4.68 5.96 21.305 23.215 27.442 29.238v-19.328c0-6.195 0-7.722-3.098-8.008l-2.035-.16v-1.246h12.176v1.246l-2.028.16c-2.031.164-2.426 1.922-2.426 8.008v27.781l-1.238.508c-1.238-1.304-4.73-5.02-10.594-11.043l-16.91-17.867v18.988c0 6.203 0 7.723 2.942 8.008l2.023.168v1.238h-12.172m43.004-1.238 2.024-.172c2.199-.23 2.199-.508 2.199-7.383V225.66c0-6.867 0-7.16-2.2-7.383l-2.023-.16v-1.246h13.688v1.246l-2.024.16c-2.207.223-2.207.516-2.207 7.383v19.613c0 6.875 0 7.153 2.207 7.383l2.024.172v1.238H601.62m25.642-16.734c1.683-.11 3.43-.293 5.117-.293 1.805 0 3.605.063 5.414.293l-5.184-13.644Zm-11.84 15.496 1.07-.172c2.14-.336 2.426-.945 3.778-4.222l11.726-28.52c.442-1.121.895-2.25 1.348-3.324l1.636-.563 12.567 32.625c.844 2.254 1.406 3.555 2.867 3.836l2.258.34v1.238h-13.977v-1.238l2.535-.45c1.02-.171 1.747-.452 1.747-1.07 0-.402-.223-.796-.332-1.19l-3.95-10.653c-2.09-.395-4.172-.55-6.258-.55-1.968 0-3.949.218-5.914.55l-2.875 7.84c-.671 1.804-1.128 3.32-1.128 3.773 0 1.07.734 1.242 1.355 1.3l3.387.45v1.238h-11.84m57.633-2.199c1.78.324 3.547.649 5.324.649 8.504 0 13.226-4.707 13.226-13.82 0-9.813-5.328-13.923-13.652-13.923-1.633 0-3.262.235-4.898.457Zm-7.844 1.168 1.672-.129c1.828-.191 1.828-.422 1.828-6.125V230.52c0-5.7 0-5.934-1.828-6.118l-1.672-.148v-1.027h15.32c9.996 0 15.985 5.234 15.985 14.3 0 12.149-9.024 16.536-18.79 16.536h-12.515m34.805-1.028 1.683-.133c1.82-.187 1.82-.422 1.82-6.12V230.52c0-5.7 0-5.938-1.82-6.118l-1.683-.148v-1.024h20.136c.18 1.024.508 2.797.508 4.95 0 1.07-.086 1.449-.086 1.867l-1.12.191c-1.032-5.004-1.13-5.699-7.716-5.699h-3.883v12.852h4.172c3.637 0 4.485-.047 4.758-1.97l.235-1.589h1.21v8.418h-1.21l-.235-1.598c-.273-1.914-1.12-1.957-4.758-1.957h-4.172v13.453c1.692.332 3.418.606 5.098.606 7.43 0 7.899-2.793 8.832-6.629l1.168.188c-.137 2.996-.75 5.183-1.535 7.753h-21.402" style="stroke:none;fill-rule:nonzero;fill:#ff7500;fill-opacity:1"/><g clip-path="url(#clip3)"><path d="M756.184 227.512c5.535 3.148 11.28 6.082 11.28 14.504 0 9.457-8.76 13.101-16.187 13.101-5.465 0-8.832-1.472-11.007-2.8-1.254-2.731-2.239-7.915-2.239-12.34l2.239-.563c.77 5.05 3.37 13.39 12.972 13.39 4.828 0 8.41-3.152 8.41-8.62 0-5.11-4.277-8.618-9.75-11.067l-4.48-2.457c-3.996-2.172-7.707-6.515-7.707-11.781 0-8.547 7.152-12.121 14.574-12.121 4.352 0 7.86 1.12 9.676 2.242.562 2.246.707 7.922.707 9.68h-1.758c-.703-3.516-1.82-9.61-9.746-9.61-4.066 0-7.64 2.942-7.64 7.64 0 4.13 3.019 6.376 6.8 8.622" style="stroke:none;fill-rule:nonzero;fill:#ff7500;fill-opacity:1"/></g><path d="m770.895 252.828 2.027-.172c2.191-.23 2.191-.508 2.191-7.383V225.66c0-6.867 0-7.16-2.191-7.383l-2.027-.16v-1.246h24.28c.227 1.246.622 3.379.622 5.977 0 1.297-.117 1.746-.117 2.254l-1.352.23c-1.234-6.039-1.348-6.887-9.3-6.887h-4.669v15.5h5.012c4.399 0 5.41-.05 5.746-2.367l.281-1.91h1.473v10.14h-1.473l-.28-1.913c-.337-2.31-1.348-2.364-5.747-2.364h-5.012v16.23c2.024.387 4.11.723 6.137.723 8.957 0 9.527-3.379 10.649-7.996l1.418.219c-.172 3.617-.907 6.262-1.86 9.36h-25.808m65.984-1.973c-1.918.734-8.059 2.82-14.094 2.82-11.32 0-21.465-4.953-21.465-19.328 0-15.043 12.114-19.559 21.02-19.559 5.746 0 10.031 1.403 11.496 2.309.504 2.258.898 5.523.898 8.344l-1.515.336c-.57-2.258-1.305-9.13-10.942-9.13-9.238 0-15.043 6.09-15.043 16.622 0 9.64 4.903 18.55 15.95 18.55 2.03 0 4.625-.23 6.593-.738v-2.082c0-6.879 0-7.152-3.945-7.383l-2.027-.171v-1.239h14.312v1.239l-2.027.171c-1.067.23-1.067.504-1.067 5.97 0 1.687 0 2.03.891 2.03h.57m35.047 2.083c-.785-.79-1.238-1.583-2.082-1.583-.789 0-5.46 3.56-12.965 3.56-11.664 0-12.62-6.708-12.62-14.368v-14.883c0-6.875 0-7.16-2.196-7.387l-2.031-.16v-1.246h13.695v1.246l-2.027.16c-2.203.227-2.203.512-2.203 7.387v13.977c0 8.054 1.359 13.414 10.097 13.414 5.864 0 9.344-3.496 10.188-4.504v-22.887c0-6.875 0-7.16-2.188-7.387l-2.027-.16v-1.246h13.687v1.246l-2.03.16c-2.192.227-2.192.512-2.192 7.387v28.402l-1.692.508m18.255-18.308h3.214c4.734 0 9.016-2.547 9.016-8.903 0-6.601-4.336-8.629-8.73-8.629-1.188 0-2.364.22-3.5.457Zm-9.47 16.562 2.036-.172c2.199-.234 2.199-.511 2.199-7.383v-19.609c0-6.871 0-7.164-2.2-7.387l-2.035-.164v-1.242h14.711c5.364 0 12.91.79 12.91 9.36 0 5.234-4.68 8.332-7.78 9.8.847 1.57 2.702 5.184 4.218 7.89 2.375 4.231 4.852 7.552 6.262 8.345.57.34 1.586.562 2.824.562v1.238h-4.352c-3.71 0-6.304-2.539-7.996-5.636l-2.246-4.332c-1.472-2.766-2.773-4.914-3.5-5.528-.898-.73-2.312-.73-3.496-.73H891.2v7.433c0 6.872 0 7.149 2.145 7.383l2.031.172v1.238H881.73m52.586-1.011c9.575 0 13.18-8.23 13.18-16.453 0-10.657-5.285-18.72-14.144-18.72-8.446 0-13.41 7.052-13.41 16.794 0 11.504 5.863 18.379 14.374 18.379m-20.289-17.301c0-12.176 9.414-19.727 20.29-19.727 10.363 0 19.105 6.586 19.105 19.106 0 12.398-9.02 19.777-20.184 19.777-11.152 0-19.21-6.98-19.21-19.156m57.765-3.044c4.445 2.524 9.066 4.892 9.066 11.673 0 7.59-7.039 10.527-13.011 10.527-4.395 0-7.102-1.183-8.852-2.254-1.012-2.191-1.805-6.367-1.805-9.918l1.805-.449c.617 4.059 2.703 10.766 10.434 10.766 3.883 0 6.754-2.543 6.754-6.938 0-4.105-3.442-6.93-7.836-8.89l-3.602-1.993c-3.207-1.734-6.203-5.234-6.203-9.453 0-6.883 5.754-9.754 11.73-9.754 3.493 0 6.301.899 7.782 1.809.445 1.8.558 6.367.558 7.777H977.2c-.574-2.824-1.46-7.73-7.832-7.73-3.27 0-6.14 2.367-6.14 6.148 0 3.328 2.421 5.121 5.46 6.934M144.52 241.422c-73.325 11.258-110.618-43.84-110.618-43.84 16.828 16.297 45.442 42.762 88.848 22.719 63.027-28.2 44.438-91.164 27.219-109.613-2.074-2.211-.742-4.051.742-4.723 4.937-2.27 18.11-7.274 28.473-10.067 1.18-.367 1.406-.96.812-2.437-.89-2.586-1.922-6.5-7.105-14.863-1.621-1.774-.887-2.813.89-3.25 2.293-.489 4.176-1.371 17.305-2.813 1.41-.226 2.957.328 3.55 1.48 2.805 4.989 4.837 10.051 6.833 16.532.191.648 1.215 1.973 2.336 2.016 4.816.199 22.203.292 31.332 2.132.73.157 2.324 1.028 2.68 2.09 2.44 7.29 7.82 42.54-7.684 79.738-17.746 42.594-52.172 59.77-85.613 64.899M42.598 75.395c1.742-3.45 5.863-11.153 9.562-15.793.883-1.106 1.66-1.551 3.64-1.215 3.587.601 9.895 3.258 18.134 5.562 1.523.434 2.41.434 3.718-1.043 3.364-3.773 12.825-12.504 28.23-18.89 1.743-.72 4.048-.75 6.177.289 1.859.91 3.91 1.78 6.316 3.02-7.312 3.296-11.105 6.253-14.078 8.964-2.54 2.324-3.086 4.79-3.086 6.492 0 .41.031.766.074 1.07.403 2.868 2.27 5.196 5.524 6.938l.433.238c-.148-.074-.289-.16-.433-.238 2.343 1.402 4.011 2.516 5.625 3.711-8.325 7.258-13.68 14.281-17.121 19.191-2.575 3.25-2.75 6.168-2.426 8.07.324 1.895 1.425 4.571 4.843 6.606l3.504 2.082c5.825 3.43 11.332 6.68 16.164 10.66 18.774 15.48 30.637 43.86 16.973 68.149-9.18 16.316-22.46 24.707-43.066 27.21-7.52.923-14.653.259-21.29-1.425a60 60 0 0 0 8.473.469c15.496-.262 31.766-5.614 40.23-18.934 21.184-33.32-3.163-67.781-36.085-78.687-7.48-2.489-19.7-5.153-29.363-6.368-3.555-.445-4.438-1.55-3.333-3.988 1.95-4.297 5.813-12.586 12.793-23.168.31-.465.16-1.633-1.183-2.012-3.574-1.007-10.953-2.996-16.934-3.902-2.11-.316-2.898-1.316-2.015-3.058m82.699-22.598c4 2.824 7.539 6.281 11.933 10.363.82.735 1.602 1.625 4.489.621 5.949-1.754 19.594-8.465 29.36-9.355 4.437-.594 5.616 0 8.276 2.367 5.114 4.348 8.93 7.574 12.063 11.023-10.086 1.149-13.32 1.957-15.492 2.504l-1.055.25-.2.055c-4.566 1.145-5.983 4.309-6.374 5.61a8 8 0 0 0-.317 2.21c0 1.457.473 3.282 1.91 5.192 2.544 4.097 3.942 6.937 4.84 9.09-9.421 2.894-19.746 6.84-24.257 8.906-2.82 1.289-4.852 3.777-5.422 6.664a9.3 9.3 0 0 0-.16 1.707c0 1.812.547 4.266 2.808 6.68 6.961 7.457 14.84 24.437 14.84 43.074 0 4.054-.375 8.176-1.21 12.312-3.915 19.36-16.954 34.125-38.755 43.88-11.308 5.058-22.851 6.113-34.515 5.726a55 55 0 0 0 1.957-.203c21.894-2.664 37.277-10.258 47.921-29.192 14.692-26.113 3.547-58.152-18.5-76.336-6.261-5.148-13.492-9.125-20.464-13.289-1.75-1.047-2.746-2.597-.524-5.265 3.598-5.133 9.617-13.086 19.668-21.079 2.078-1.476 1.195-2.648.305-3.84-3.55-2.956-5.918-4.738-10.356-7.402-2.37-1.175-3.332-2.441-1.484-4.136 2.207-2.012 5.664-5.028 14.059-8.582 1.77-1.11 3.625-.418 4.656.445M127.055.004C56.887.004 0 56.879 0 127.05c0 70.168 56.887 127.054 127.055 127.054 70.164 0 127.05-56.886 127.05-127.054C254.105 56.879 197.22.004 127.055.004" style="stroke:none;fill-rule:nonzero;fill:#ff7500;fill-opacity:1"/></g></svg>