<svg xmlns="http://www.w3.org/2000/svg" viewBox="0 0 255 255"><path fill="#FF7500" d="M144.52 241.422c-73.325 11.258-110.618-43.84-110.618-43.84 16.828 16.297 45.442 42.762 88.848 22.719 63.027-28.2 44.438-91.164 27.219-109.613-2.074-2.211-.742-4.051.742-4.723 4.937-2.27 18.11-7.274 28.473-10.067 1.18-.367 1.406-.96.812-2.437-.89-2.586-1.922-6.5-7.105-14.863-1.621-1.774-.887-2.813.89-3.25 2.293-.489 4.176-1.371 17.305-2.813 1.41-.226 2.957.328 3.55 1.48 2.805 4.989 4.837 10.051 6.833 16.532.191.648 1.215 1.973 2.336 2.016 4.816.199 22.203.292 31.332 2.132.73.157 2.324 1.028 2.68 2.09 2.44 7.29 7.82 42.54-7.684 79.738-17.746 42.594-52.172 59.77-85.613 64.899M42.598 75.395c1.742-3.45 5.863-11.153 9.562-15.793.883-1.106 1.66-1.551 3.64-1.215 3.587.601 9.895 3.258 18.134 5.562 1.523.434 2.41.434 3.718-1.043 3.364-3.773 12.825-12.504 28.23-18.89 1.743-.72 4.048-.75 6.177.289 1.859.91 3.91 1.78 6.316 3.02-7.312 3.296-11.105 6.253-14.078 8.964-2.54 2.324-3.086 4.79-3.086 6.492 0 .41.031.766.074 1.07.403 2.868 2.27 5.196 5.524 6.938l.433.238c-.148-.074-.289-.16-.433-.238 2.343 1.402 4.011 2.516 5.625 3.711-8.325 7.258-13.68 14.281-17.121 19.191-2.575 3.25-2.75 6.168-2.426 8.07.324 1.895 1.425 4.571 4.843 6.606l3.504 2.082c5.825 3.43 11.332 6.68 16.164 10.66 18.774 15.48 30.637 43.86 16.973 68.149-9.18 16.316-22.46 24.707-43.066 27.21-7.52.923-14.653.259-21.29-1.425a60 60 0 0 0 8.473.469c15.496-.262 31.766-5.614 40.23-18.934 21.184-33.32-3.163-67.781-36.085-78.687-7.48-2.489-19.7-5.153-29.363-6.368-3.555-.445-4.438-1.55-3.333-3.988 1.95-4.297 5.813-12.586 12.793-23.168.31-.465.16-1.633-1.183-2.012-3.574-1.007-10.953-2.996-16.934-3.902-2.11-.316-2.898-1.316-2.015-3.058m82.699-22.598c4 2.824 7.539 6.281 11.933 10.363.82.735 1.602 1.625 4.489.621 5.949-1.754 19.594-8.465 29.36-9.355 4.437-.594 5.616 0 8.276 2.367 5.114 4.348 8.93 7.574 12.063 11.023-10.086 1.149-13.32 1.957-15.492 2.504l-1.055.25-.2.055c-4.566 1.145-5.983 4.309-6.374 5.61a8 8 0 0 0-.317 2.21c0 1.457.473 3.282 1.91 5.192 2.544 4.097 3.942 6.937 4.84 9.09-9.421 2.894-19.746 6.84-24.257 8.906-2.82 1.289-4.852 3.777-5.422 6.664a9.3 9.3 0 0 0-.16 1.707c0 1.812.547 4.266 2.808 6.68 6.961 7.457 14.84 24.437 14.84 43.074 0 4.054-.375 8.176-1.21 12.312-3.915 19.36-16.954 34.125-38.755 43.88-11.308 5.058-22.851 6.113-34.515 5.726a55 55 0 0 0 1.957-.203c21.894-2.664 37.277-10.258 47.921-29.192 14.692-26.113 3.547-58.152-18.5-76.336-6.261-5.148-13.492-9.125-20.464-13.289-1.75-1.047-2.746-2.597-.524-5.265 3.598-5.133 9.617-13.086 19.668-21.079 2.078-1.476 1.195-2.648.305-3.84-3.55-2.956-5.918-4.738-10.356-7.402-2.37-1.175-3.332-2.441-1.484-4.136 2.207-2.012 5.664-5.028 14.059-8.582 1.77-1.11 3.625-.418 4.656.445M127.055.004C56.887.004 0 56.879 0 127.05c0 70.168 56.887 127.054 127.055 127.054 70.164 0 127.05-56.886 127.05-127.054C254.105 56.879 197.22.004 127.055.004"/></svg>
